{
  "asset": {
    "version": "2.0",
    "generator": "GLTFExporter"
  },
  "scenes": [
    {
      "name": "Scene",
      "nodes": [
        0,
        2,
        4,
        5,
        7
      ]
    }
  ],
  "scene": 0,
  "nodes": [
    {
      "name": "cilindroP_selected.gltf"
    },
    {
      "name": "main",
      "extras": {
        "name": "main"
      }
    },
    {
      "name": "Forklift.glb",
      "children": [
        1
      ]
    },
    {
      "name": "main",
      "extras": {
        "name": "main"
      }
    },
    {
      "name": "Forklift.glb",
      "children": [
        3
      ]
    },
    {
      "name": "Forklift.obj"
    },
    {
      "matrix": [
        -0.03097532119425191,
        0.0010816820513573186,
        0.0010823413844848594,
        0,
        0.0011948534858754396,
        -0.00004172520315667223,
        0.03423698330267944,
        0,
        0.0014829053318702796,
        0.04246485267802335,
        9.434838885019292e-18,
        0,
        0.09952785274340474,
        0.13820223205332116,
        0.9722822600902729,
        1
      ],
      "mesh": 0
    },
    {
      "name": "Forklift.obj",
      "children": [
        6
      ]
    }
  ],
  "bufferViews": [
    {
      "buffer": 0,
      "byteOffset": 0,
      "byteLength": 50400,
      "target": 34962,
      "byteStride": 12
    },
    {
      "buffer": 0,
      "byteOffset": 50400,
      "byteLength": 50400,
      "target": 34962,
      "byteStride": 12
    }
  ],
  "buffers": [
    {
      "byteLength": 100800,
      "uri": "data:application/octet-stream;base64,"
    }
  ],
  "accessors": [
    {
      "bufferView": 0,
      "componentType": 5126,
      "count": 4200,
      "max": [
        6.349999904632568,
        24,
        25
      ],
      "min": [
        -6.349999904632568,
        0,
        0.03759999945759773
      ],
      "type": "VEC3"
    },
    {
      "bufferView": 1,
      "componentType": 5126,
      "count": 4200,
      "max": [
        1,
        1,
        1
      ],
      "min": [
        -1,
        -1,
        -1
      ],
      "type": "VEC3"
    }
  ],
  "materials": [
    {
      "pbrMetallicRoughness": {
        "baseColorFactor": [
          0.6901960784313725,
          0.23137254901960785,
          0.23137254901960785,
          1
        ],
        "metallicFactor": 0.5,
        "roughnessFactor": 0.5
      },
      "emissiveFactor": [
        0.10588235294117647,
        0.6274509803921569,
        0.6941176470588235
      ]
    }
  ],
  "meshes": [
    {
      "primitives": [
        {
          "mode": 4,
          "attributes": {
            "POSITION": 0,
            "NORMAL": 1
          },
          "material": 0
        }
      ]
    }
  ]
}